<svg width="120" height="38" viewBox="0 0 120 38" fill="none" xmlns="http://www.w3.org/2000/svg">
<g clip-path="url(#clip0_2132_30859)">
<mask id="mask0_2132_30859" style="mask-type:luminance" maskUnits="userSpaceOnUse" x="0" y="0" width="120" height="37">
<path d="M120 0.713379H0V36.3878H120V0.713379Z" fill="white"/>
</mask>
<g mask="url(#mask0_2132_30859)">
<path d="M30.9531 10.1838H37.6603C41.9886 10.1838 44.1528 12.3022 44.1528 16.539C44.1528 18.6933 43.5983 20.3361 42.4894 21.4669C41.3984 22.598 39.7887 23.1636 37.6603 23.1636H34.6554V28.4954H30.9531V10.1838ZM37.6334 19.986C39.4757 19.986 40.3968 18.8369 40.3968 16.539C40.3968 15.426 40.1733 14.6181 39.7261 14.1155C39.2968 13.6127 38.5993 13.3614 37.6334 13.3614H34.6554V19.986H37.6334ZM46.4297 15.031H49.9978V16.4582C51.5361 15.5605 52.967 14.9772 54.2906 14.7079V18.3433C52.9491 18.6125 51.706 18.9268 50.5614 19.2858L50.0247 19.4743V28.4954H46.4297V15.031ZM61.885 28.8186C59.864 28.8186 58.3257 28.2081 57.2704 26.9875C56.233 25.7487 55.7144 23.9982 55.7144 21.7363C55.7144 19.4923 56.233 17.7598 57.2704 16.539C58.3257 15.3182 59.864 14.7079 61.885 14.7079C63.9061 14.7079 65.4353 15.3182 66.4727 16.539C67.528 17.7598 68.0556 19.4923 68.0556 21.7363C68.0556 23.9982 67.528 25.7487 66.4727 26.9875C65.4353 28.2081 63.9061 28.8186 61.885 28.8186ZM61.885 25.7487C62.7434 25.7487 63.3784 25.4345 63.7898 24.8062C64.2013 24.1778 64.4068 23.1545 64.4068 21.7363C64.4068 20.3181 64.2013 19.3038 63.7898 18.6933C63.3784 18.083 62.7434 17.7778 61.885 17.7778C61.0264 17.7778 60.3916 18.083 59.9801 18.6933C59.5688 19.3038 59.363 20.3181 59.363 21.7363C59.363 23.1545 59.5688 24.1778 59.9801 24.8062C60.3916 25.4345 61.0264 25.7487 61.885 25.7487ZM75.386 28.8186C74.2056 28.8186 72.7657 28.6569 71.0666 28.3338L70.208 28.1722L70.3153 25.1562C72.4796 25.4435 74.0534 25.587 75.0371 25.587C75.699 25.587 76.2177 25.5153 76.5933 25.3717C76.9867 25.228 77.1836 24.9587 77.1836 24.5638C77.1836 24.2047 76.9957 23.9445 76.62 23.7829C76.2623 23.6214 75.6543 23.4687 74.7957 23.3251C74.4738 23.2892 74.2501 23.2532 74.125 23.2174C73.2307 23.0557 72.4974 22.8582 71.925 22.6249C71.3527 22.3736 70.8876 21.9876 70.5298 21.4669C70.1721 20.9284 69.9934 20.1834 69.9934 19.2319C69.9934 17.7058 70.4584 16.575 71.3884 15.8389C72.3186 15.1027 73.5973 14.7349 75.225 14.7349C76.1908 14.7349 77.6127 14.9054 79.4907 15.2464L80.3761 15.408L80.3224 18.3972C78.1583 18.11 76.5575 17.9663 75.5201 17.9663C74.912 17.9663 74.4291 18.0291 74.0714 18.1548C73.7316 18.2803 73.5616 18.5228 73.5616 18.8818C73.5616 19.2588 73.7404 19.5281 74.0981 19.6898C74.4558 19.8333 75.0371 19.9769 75.8421 20.1206L76.7811 20.2821C78.212 20.5694 79.2314 21.0002 79.8396 21.5748C80.4477 22.1312 80.7517 23.0379 80.7517 24.2945C80.7517 25.8383 80.3136 26.9784 79.4371 27.7144C78.5607 28.4506 77.2103 28.8186 75.386 28.8186ZM83.3454 15.031H86.9137V15.758C87.6113 15.3452 88.1926 15.0669 88.6576 14.9232C89.1406 14.7797 89.6503 14.7079 90.1868 14.7079C91.9041 14.7079 93.1738 15.2824 93.9964 16.4313C94.8373 17.5623 95.2578 19.3756 95.2578 21.8709C95.2578 23.5944 95.0517 24.9587 94.6404 25.9641C94.2291 26.9694 93.5851 27.6966 92.7084 28.1453C91.8327 28.5941 90.6697 28.8186 89.221 28.8186C88.5056 28.8186 87.7454 28.7468 86.9406 28.6031V34.1505H83.3454V15.031ZM88.8723 25.6948C89.8738 25.6948 90.5804 25.4075 90.9917 24.833C91.403 24.2407 91.6083 23.2532 91.6083 21.8709C91.6083 20.5066 91.421 19.5101 91.0453 18.8818C90.6697 18.2535 90.0527 17.9393 89.1943 17.9393C88.5683 17.9393 87.9243 18.074 87.2626 18.3433L86.9406 18.4778V25.5332C87.7454 25.641 88.3893 25.6948 88.8723 25.6948ZM103.197 28.8186C101.105 28.8186 99.5934 28.289 98.6636 27.2298C97.7328 26.1705 97.2684 24.4562 97.2684 22.0864C97.2684 19.6089 97.7513 17.7598 98.7167 16.539C99.7006 15.3182 101.221 14.7079 103.278 14.7079C105.174 14.7079 106.605 15.2195 107.57 16.2428C108.554 17.2481 109.046 18.7651 109.046 20.7938L108.778 23.2982H100.89C100.926 23.9265 101.033 24.4112 101.212 24.7524C101.409 25.0755 101.713 25.3088 102.124 25.4525C102.553 25.5781 103.144 25.641 103.895 25.641C104.485 25.641 105.191 25.623 106.015 25.587C106.837 25.5512 107.436 25.5153 107.812 25.4793L108.563 25.3987L108.617 28.0646C106.596 28.5671 104.789 28.8186 103.197 28.8186ZM105.505 20.5514C105.505 19.4743 105.335 18.7293 104.995 18.3163C104.673 17.8855 104.092 17.67 103.251 17.67C102.393 17.67 101.785 17.8943 101.426 18.3433C101.069 18.7741 100.881 19.5101 100.863 20.5514H105.505ZM111.615 15.031H115.183V16.4582C116.721 15.5605 118.152 14.9772 119.476 14.7079V18.3433C118.135 18.6125 116.892 18.9268 115.747 19.2858L115.211 19.4743V28.4954H111.615V15.031Z" fill="#FF421C"/>
<path d="M0.0664062 36.3873V7.56274L10.4018 14.0093V30.0889L0.0664062 36.3873Z" fill="#FF421C"/>
<path d="M23.3197 15.9371V0.820801L12.9844 6.60054V22.0874L23.3197 15.9371Z" fill="#FF421C"/>
</g>
</g>
<defs>
<clipPath id="clip0_2132_30859">
<rect width="120" height="37.1014" fill="white"/>
</clipPath>
</defs>
</svg>
